<svg xmlns="http://www.w3.org/2000/svg" version="1.1" xmlns:xlink="http://www.w3.org/1999/xlink" xmlns:svgjs="http://svgjs.dev/svgjs" width="1500" height="537" viewBox="0 0 1500 537"><g transform="matrix(1,0,0,1,-0.9090909090909918,-1.0744481136369473)"><svg viewBox="0 0 396 142" data-background-color="#ffffff" preserveAspectRatio="xMidYMid meet" height="537" width="1500" xmlns="http://www.w3.org/2000/svg" xmlns:xlink="http://www.w3.org/1999/xlink"><g id="tight-bounds" transform="matrix(1,0,0,1,0.2400000000000091,0.2841184955985909)"><svg viewBox="0 0 395.52 141.43176300880282" height="141.43176300880282" width="395.52"><g><svg viewBox="0 0 720.2273023386826 257.5420133920761" height="141.43176300880282" width="395.52"><g><svg viewBox="0 0 395.52 257.5420133920761" height="257.5420133920761" width="395.52"><g id="textblocktransform"><svg viewBox="0 0 395.52 257.5420133920761" height="257.5420133920761" width="395.52" id="textblock"><g><svg viewBox="0 0 395.52 184.73389221556886" height="184.73389221556886" width="395.52"><g transform="matrix(1,0,0,1,0,0)"><svg width="395.52" viewBox="2.5 -35.05 75.15 35.099999999999994" height="184.73389221556886" data-palette-color="#274c77"><g class="wordmark-text-0" data-fill-palette-color="primary" id="text-0"><path d="M29.9-34.05L29.9-1.1Q29.9-0.05 25.2-0.05 20.5-0.05 20.1-0.8L20.1-0.8 11.75-16.4 11.75-0.85Q11.75 0.05 7.13 0.05 2.5 0.05 2.5-0.85L2.5-0.85 2.5-34.3Q2.5-35.05 6.45-35.05L6.45-35.05Q8-35.05 10.08-34.77 12.15-34.5 12.6-33.75L12.6-33.75 20.6-18.35 20.6-34.05Q20.6-35 25.25-35 29.9-35 29.9-34.05L29.9-34.05ZM44.7-21.1L51.15-21.1Q52.1-21.1 52.1-17.6L52.1-17.6Q52.1-16.55 51.87-15.13 51.65-13.7 51.05-13.7L51.05-13.7 44.7-13.7 44.7-8.7 53.9-8.7Q54.75-8.7 55.05-6.5L55.05-6.5Q55.2-5.55 55.2-4.48 55.2-3.4 54.9-1.7 54.6 0 53.9 0L53.9 0 36.8 0Q34.9 0 34.9-1.55L34.9-1.55 34.9-33.7Q34.9-35 36.05-35L36.05-35 53.95-35Q55-35 55-30.58 55-26.15 53.95-26.15L53.95-26.15 44.7-26.15 44.7-21.1ZM59.4-8.6L62.84-8.6 62.84-26.4 59.3-26.4Q58.45-26.4 58.09-28.55L58.09-28.55Q57.95-29.6 57.95-30.7 57.95-31.8 58.09-32.85L58.09-32.85Q58.45-35 59.3-35L59.3-35 76.09-35Q76.95-35 77.25-32.85L77.25-32.85Q77.45-31.8 77.45-30.7 77.45-29.6 77.25-28.55L77.25-28.55Q76.95-26.4 76.09-26.4L76.09-26.4 72.75-26.4 72.75-8.6 76.25-8.6Q77.09-8.6 77.45-6.45L77.45-6.45Q77.65-5.4 77.65-4.3 77.65-3.2 77.45-2.15L77.45-2.15Q77.09 0 76.25 0L76.25 0 59.4 0Q58.55 0 58.25-2.15L58.25-2.15Q58.05-3.2 58.05-4.3 58.05-5.4 58.25-6.45L58.25-6.45Q58.55-8.6 59.4-8.6L59.4-8.6Z" fill="#274c77" data-fill-palette-color="primary"></path></g></svg></g></svg></g><g transform="matrix(1,0,0,1,163.310208,228.34513055425148)"><svg viewBox="0 0 232.209792 29.196882837824592" height="29.196882837824592" width="232.209792"><g transform="matrix(1,0,0,1,0,0)"><svg width="232.209792" viewBox="3.66 -38.38 398.59999999999997 50.120000000000005" height="29.196882837824592" data-palette-color="#2a61a0"><path d="M23.54-14.01L23.73-14.01Q24.07-15.33 24.48-16.61 24.88-17.9 25.46-19.48L25.46-19.48Q25.98-20.9 26.71-22.74 27.44-24.58 28.26-26.49 29.08-28.39 29.86-30.03 30.64-31.67 31.27-32.64L31.27-32.64Q32.06-33.84 32.97-34.42 33.89-35.01 35.67-35.01L35.67-35.01 38.87-35.01Q40.14-35.01 41-34.63 41.87-34.25 42.24-32.84L42.24-32.84Q42.5-31.79 42.75-29.76 42.99-27.73 43.16-24.15 43.33-20.56 43.43-14.93 43.53-9.3 43.53-1.03L43.53-1.03Q43.53-0.59 43.24-0.29 42.94 0 42.53 0L42.53 0 36.96 0Q36.55 0 36.25-0.29 35.96-0.59 35.96-1.05L35.96-1.05Q35.96-7.5 35.96-11.99 35.96-16.48 35.94-19.43 35.91-22.39 35.88-24.13 35.84-25.88 35.77-26.83L35.77-26.83 35.62-26.83Q34.33-23.85 32.86-20.2 31.4-16.55 30-12.68 28.61-8.81 27.51-5.13L27.51-5.13Q27.2-4.03 26.72-3.6 26.25-3.17 24.56-3.17L24.56-3.17 21.75-3.17Q20.31-3.17 19.84-3.54 19.36-3.91 19.02-5.13L19.02-5.13Q18.21-7.91 17.24-11.01 16.26-14.11 15.22-17.1 14.18-20.09 13.22-22.62 12.26-25.15 11.5-26.83L11.5-26.83 11.35-26.83Q11.16-23.95 11.01-19.82 10.86-15.7 10.78-10.86 10.69-6.03 10.67-1L10.67-1Q10.67-0.56 10.38-0.28 10.08 0 9.67 0L9.67 0 4.66 0Q4.25 0 3.96-0.29 3.66-0.59 3.66-1.05L3.66-1.05Q3.69-14.06 4.19-21.83 4.69-29.59 5.27-32.23L5.27-32.23Q5.66-33.96 6.65-34.48 7.64-35.01 8.91-35.01L8.91-35.01 12.87-35.01Q14.21-35.01 14.83-34.53 15.45-34.06 16.36-32.69L16.36-32.69Q16.89-31.88 17.64-30.27 18.38-28.66 19.19-26.7 20-24.73 20.72-22.81 21.44-20.9 21.9-19.48L21.9-19.48Q22.39-18.04 22.8-16.69 23.22-15.33 23.54-14.01L23.54-14.01ZM56.96 0.61L56.96 0.61Q53.37 0.61 51.25-1.4 49.14-3.42 49.14-6.96L49.14-6.96Q49.14-8.79 49.81-10.36 50.49-11.94 52.16-13.15 53.83-14.36 56.85-15.09 59.86-15.82 64.55-15.94L64.55-15.94Q64.55-18.16 63.44-19.14 62.33-20.12 60.1-20.12L60.1-20.12Q58.1-20.12 56.83-19.43 55.56-18.75 55.25-18.51L55.25-18.51Q54.9-18.21 54.42-18.29L54.42-18.29Q53.76-18.38 53.01-18.63 52.27-18.87 51.41-19.19L51.41-19.19Q51.29-19.24 51.14-19.35 51-19.46 50.97-19.68L50.97-19.68Q50.97-19.8 51-19.98 51.02-20.17 51.12-20.65L51.12-20.65Q51.22-21.14 51.41-21.86 51.61-22.58 51.78-22.97L51.78-22.97Q52-23.39 52.51-23.75L52.51-23.75Q52.93-24.1 55.03-24.85 57.13-25.61 61.11-25.61L61.11-25.61Q72.07-25.61 72.07-14.94L72.07-14.94 72.07-1.12Q72.07-0.66 71.81-0.33 71.56 0 70.94 0L70.94 0 67.28 0Q66.89 0 66.59-0.11 66.28-0.22 66.01-0.54L66.01-0.54 64.5-2.49 64.33-2.49Q63.21-0.85 61.31-0.12 59.42 0.61 56.96 0.61ZM59.64-5.05L59.64-5.05Q61.89-5.05 63.03-6.2 64.18-7.35 64.5-8.57L64.5-8.57 64.5-11.28Q61.11-11.28 59.41-10.75 57.71-10.23 57.15-9.39 56.59-8.54 56.59-7.57L56.59-7.57Q56.59-6.15 57.47-5.6 58.35-5.05 59.64-5.05ZM86.37-22.17L86.37-20.36 86.47-20.36Q88.3-25.44 93.06-25.44L93.06-25.44Q93.67-25.44 94.06-25.38 94.45-25.32 94.6-25.27L94.6-25.27Q94.97-25.15 94.97-24.71L94.97-24.71 94.97-18.82Q94.97-18.07 94.09-18.41L94.09-18.41Q93.79-18.53 93.24-18.66 92.7-18.8 91.72-18.8L91.72-18.8Q89.2-18.8 87.79-16.96 86.37-15.11 86.37-11.94L86.37-11.94 86.37-1.29Q86.37-0.56 86.07-0.28 85.76 0 85.03 0L85.03 0 80 0Q79.27 0 78.96-0.28 78.66-0.56 78.66-1.29L78.66-1.29 78.66-21.75Q78.66-22.34 78.9-22.66L78.9-22.66Q79.41-23.34 80.13-24.05 80.85-24.76 81.9-25.56L81.9-25.56Q82.1-25.71 82.29-25.76 82.49-25.81 82.64-25.81L82.64-25.81Q82.98-25.81 83.32-25.56L83.32-25.56Q85.35-23.97 86.15-22.85L86.15-22.85Q86.37-22.56 86.37-22.17L86.37-22.17ZM106.32-10.21L106.32-1.29Q106.32-0.56 106.01-0.28 105.71 0 104.97 0L104.97 0 99.94 0Q99.21 0 98.91-0.28 98.6-0.56 98.6-1.29L98.6-1.29 98.6-34.33Q98.6-34.91 98.85-35.23L98.85-35.23Q99.87-36.57 101.85-38.13L101.85-38.13Q102.19-38.38 102.46-38.38L102.46-38.38Q102.78-38.38 103.07-38.13L103.07-38.13Q104.12-37.33 104.84-36.62 105.56-35.91 106.07-35.23L106.07-35.23Q106.32-34.91 106.32-34.33L106.32-34.33 106.32-15.16 106.61-15.16Q110.32-15.16 111.65-16.49 112.98-17.82 112.98-20.19L112.98-20.19 112.98-21.51Q112.98-22.09 113.22-22.41L113.22-22.41Q114.25-23.75 116.23-25.32L116.23-25.32Q116.57-25.56 116.84-25.56L116.84-25.56Q117.16-25.56 117.45-25.32L117.45-25.32Q118.5-24.51 119.22-23.8 119.94-23.1 120.45-22.41L120.45-22.41Q120.7-22.09 120.7-21.51L120.7-21.51 120.7-20.19Q120.7-18.8 120.15-17.11 119.6-15.43 118.16-14.14 116.72-12.84 114.06-12.62L114.06-12.62 114.06-12.5Q116.11-11.6 117.6-10.11 119.08-8.62 120.09-6.92 121.09-5.22 121.64-3.67 122.18-2.12 122.36-1.05L122.36-1.05Q122.53 0 121.65 0L121.65 0 115.23 0Q114.4 0 114.27-1L114.27-1Q114.1-2.15 113.53-3.7 112.96-5.25 111.99-6.74 111.03-8.23 109.67-9.22 108.32-10.21 106.61-10.21L106.61-10.21 106.32-10.21ZM139.15 0.61L139.15 0.61Q135.02 0.61 131.97-0.72 128.92-2.05 127.24-4.86 125.55-7.67 125.55-12.11L125.55-12.11Q125.55-18.77 128.97-22.19 132.39-25.61 138.05-25.61L138.05-25.61Q141.74-25.61 144.29-24.29 146.84-22.97 148.17-20.65 149.5-18.33 149.5-15.36L149.5-15.36Q149.5-12.45 148.01-11.3 146.52-10.16 143.67-10.16L143.67-10.16 133.19-10.16Q133.39-7.64 135.04-6.32 136.68-5 139.52-5L139.52-5Q141.76-5 143.12-5.68 144.47-6.35 145.01-6.74L145.01-6.74Q145.47-7.08 146.06-7.06L146.06-7.06Q146.52-7.06 147.39-6.87 148.26-6.69 149.11-6.2L149.11-6.2Q149.72-5.88 149.72-5.32L149.72-5.32Q149.72-5 149.6-4.42L149.6-4.42Q149.53-4.08 149.36-3.43 149.18-2.78 148.92-2.22L148.92-2.22Q148.77-1.95 148.45-1.71L148.45-1.71Q147.96-1.37 146.88-0.81 145.79-0.24 143.91 0.18 142.03 0.61 139.15 0.61ZM133.14-15.16L133.14-15.16 141.1-15.16Q142.35-15.16 142.35-16.31L142.35-16.31Q142.35-18.04 141.26-19.23 140.18-20.41 138-20.41L138-20.41Q135.63-20.41 134.52-18.9 133.41-17.38 133.14-15.16ZM164.76 0.61L164.76 0.61Q156.6 0.61 156.6-7.86L156.6-7.86 156.6-19.31 153.84-19.31Q153.11-19.31 152.83-19.62 152.55-19.92 152.55-20.65L152.55-20.65 152.55-23.66Q152.55-24.39 152.83-24.69 153.11-25 153.84-25L153.84-25 156.6-25 156.6-28.93Q156.6-29.52 156.85-29.83L156.85-29.83Q157.87-31.18 159.85-32.74L159.85-32.74Q160.19-32.98 160.46-32.98L160.46-32.98Q160.75-32.98 161.05-32.74L161.05-32.74Q162.1-31.93 162.82-31.23 163.54-30.52 164.05-29.83L164.05-29.83Q164.29-29.52 164.29-28.93L164.29-28.93 164.29-25 168.62-25Q169.35-25 169.63-24.69 169.91-24.39 169.91-23.66L169.91-23.66 169.91-20.65Q169.91-19.92 169.63-19.62 169.35-19.31 168.62-19.31L168.62-19.31 164.29-19.31 164.29-9.2Q164.29-5.3 167.13-5.3L167.13-5.3Q167.57-5.3 167.93-5.38 168.3-5.47 168.57-5.57L168.57-5.57Q169.08-5.76 169.29-5.71 169.49-5.66 169.67-5.18L169.67-5.18 171.08-1.39Q171.3-0.78 170.79-0.51L170.79-0.51Q170.42-0.34 169.02 0.13 167.61 0.61 164.76 0.61ZM208.41-33.08L208.41-33.08Q209.75-31.2 211.15-28.23 212.56-25.27 213.87-21.73 215.19-18.19 216.25-14.49 217.32-10.79 218-7.37 218.68-3.96 218.78-1.29L218.78-1.29Q218.81 0 217.61 0L217.61 0 211.7 0Q210.55 0 210.5-1.15L210.5-1.15Q210.41-3.88 209.63-7.79L209.63-7.79 196.3-7.79Q195.61-3.98 195.51-1.15L195.51-1.15Q195.47 0 194.27 0L194.27 0 188.48 0Q188.04 0 187.75-0.26 187.46-0.51 187.48-1.15L187.48-1.15Q187.6-3.86 188.28-7.31 188.95-10.77 190.02-14.48 191.1-18.19 192.41-21.74 193.73-25.29 195.15-28.25 196.56-31.2 197.91-33.08L197.91-33.08Q198.62-34.08 199.41-34.55 200.2-35.01 201.37-35.01L201.37-35.01 204.89-35.01Q206.09-35.01 206.89-34.55 207.7-34.08 208.41-33.08ZM203.03-27.29L202.89-27.29Q201.28-24.73 199.93-21.17 198.59-17.6 197.61-13.84L197.61-13.84 208.21-13.84Q207.18-17.6 205.84-21.17 204.5-24.73 203.03-27.29L203.03-27.29ZM248.08-15.55L248.08-15.55 248.08-1.29Q248.08-0.56 247.77-0.28 247.47 0 246.73 0L246.73 0 241.7 0Q240.97 0 240.67-0.28 240.36-0.56 240.36-1.29L240.36-1.29 240.36-14.28Q240.36-16.94 239.24-18.16 238.11-19.38 236.19-19.38L236.19-19.38Q234.26-19.38 233.22-18.55 232.18-17.72 231.62-16.46L231.62-16.46 231.62-1.29Q231.62-0.56 231.32-0.28 231.01 0 230.28 0L230.28 0 225.25 0Q224.52 0 224.21-0.28 223.91-0.56 223.91-1.29L223.91-1.29 223.91-21.75Q223.91-22.34 224.15-22.66L224.15-22.66Q224.66-23.34 225.38-24.05 226.1-24.76 227.15-25.56L227.15-25.56Q227.47-25.81 227.76-25.81L227.76-25.81Q228.03-25.81 228.37-25.56L228.37-25.56Q229.4-24.76 230.13-24.02 230.86-23.29 231.43-22.51L231.43-22.51 231.55-22.51Q231.96-23.05 232.79-23.77 233.62-24.49 235.12-25.05 236.63-25.61 238.97-25.61L238.97-25.61Q241.26-25.61 243.34-24.68 245.41-23.75 246.75-21.56 248.08-19.36 248.08-15.55ZM261.13 0.61L261.13 0.61Q257.55 0.61 255.43-1.4 253.32-3.42 253.32-6.96L253.32-6.96Q253.32-8.79 253.99-10.36 254.67-11.94 256.34-13.15 258.01-14.36 261.02-15.09 264.04-15.82 268.73-15.94L268.73-15.94Q268.73-18.16 267.62-19.14 266.51-20.12 264.28-20.12L264.28-20.12Q262.28-20.12 261.01-19.43 259.74-18.75 259.43-18.51L259.43-18.51Q259.08-18.21 258.6-18.29L258.6-18.29Q257.94-18.38 257.19-18.63 256.45-18.87 255.59-19.19L255.59-19.19Q255.47-19.24 255.32-19.35 255.18-19.46 255.15-19.68L255.15-19.68Q255.15-19.8 255.18-19.98 255.2-20.17 255.3-20.65L255.3-20.65Q255.4-21.14 255.59-21.86 255.79-22.58 255.96-22.97L255.96-22.97Q256.18-23.39 256.69-23.75L256.69-23.75Q257.11-24.1 259.21-24.85 261.31-25.61 265.29-25.61L265.29-25.61Q276.25-25.61 276.25-14.94L276.25-14.94 276.25-1.12Q276.25-0.66 275.99-0.33 275.73 0 275.12 0L275.12 0 271.46 0Q271.07 0 270.77-0.11 270.46-0.22 270.19-0.54L270.19-0.54 268.68-2.49 268.51-2.49Q267.38-0.85 265.49-0.12 263.6 0.61 261.13 0.61ZM263.82-5.05L263.82-5.05Q266.07-5.05 267.21-6.2 268.36-7.35 268.68-8.57L268.68-8.57 268.68-11.28Q265.29-11.28 263.59-10.75 261.89-10.23 261.33-9.39 260.77-8.54 260.77-7.57L260.77-7.57Q260.77-6.15 261.65-5.6 262.53-5.05 263.82-5.05ZM291.14-1.83L286.03 0.51Q285.52 0.73 285.3 0.73L285.3 0.73Q285.08 0.73 284.84 0.56L284.84 0.56Q284.28 0.17 283.56-1.35 282.84-2.88 282.84-6.05L282.84-6.05 282.84-34.33Q282.84-34.91 283.08-35.23L283.08-35.23Q284.11-36.57 286.08-38.13L286.08-38.13Q286.43-38.38 286.69-38.38L286.69-38.38Q287.01-38.38 287.3-38.13L287.3-38.13Q288.35-37.33 289.07-36.62 289.79-35.91 290.31-35.23L290.31-35.23Q290.55-34.91 290.55-34.33L290.55-34.33 290.55-7.54Q290.55-5.93 290.82-4.8 291.09-3.66 291.45-2.98L291.45-2.98Q291.87-2.17 291.14-1.83L291.14-1.83ZM298.02 11.74L298.02 11.74Q297.12 11.74 296.65 11.56 296.19 11.38 295.87 11.11L295.87 11.11Q295.24 10.5 294.5 9.4L294.5 9.4Q294.33 9.13 294.14 8.78 293.94 8.42 293.94 8.18L293.94 8.18Q293.94 7.91 294.06 7.69 294.19 7.47 294.36 7.28L294.36 7.28Q294.75 6.76 295.31 6.21 295.87 5.66 296.26 5.35L296.26 5.35Q296.53 5.13 296.7 5.07 296.87 5 296.99 5L296.99 5Q297.12 5 297.36 5.05 297.6 5.1 298.09 5.1L298.09 5.1Q299.78 5.1 301.61 4 303.44 2.91 305.22-0.12L305.22-0.12Q303.37-1.83 301.57-4.41 299.78-6.98 298.34-10 296.9-13.01 296.03-16.02 295.16-19.02 295.16-21.56L295.16-21.56Q295.16-22.09 295.43-22.41L295.43-22.41Q296.55-23.8 298.63-25.32L298.63-25.32Q299-25.56 299.29-25.56L299.29-25.56Q299.61-25.56 299.95-25.32L299.95-25.32Q301.07-24.51 301.84-23.8 302.61-23.1 303.15-22.41L303.15-22.41Q303.41-22.09 303.41-21.51L303.41-21.51 303.41-21.61Q303.41-19.68 303.88-17.53 304.34-15.38 305.15-13.34 305.95-11.3 306.95-9.66 307.96-8.01 309.03-7.03L309.03-7.03 309.15-7.03Q309.64-7.96 310.24-9.7 310.84-11.45 311.37-13.59 311.91-15.72 312.25-17.83 312.59-19.95 312.59-21.58L312.59-21.58 312.59-21.51Q312.59-22.09 312.84-22.41L312.84-22.41Q313.4-23.1 314.16-23.8 314.91-24.51 315.99-25.32L315.99-25.32Q316.33-25.56 316.62-25.56L316.62-25.56Q316.96-25.56 317.26-25.32L317.26-25.32Q318.36-24.51 319.11-23.8 319.87-23.1 320.41-22.41L320.41-22.41Q320.65-22.09 320.65-21.53L320.65-21.53Q320.63-19.31 319.8-15.73 318.97-12.16 317.38-7.98 315.79-3.81 313.52 0.2L313.52 0.2Q310.13 6.23 306.2 8.98 302.27 11.74 298.02 11.74ZM320.65-21.58L320.65-21.58 320.65-21.51 320.65-21.53Q320.65-21.56 320.65-21.58ZM295.16-21.51L295.16-21.58 295.16-21.56 295.16-21.51ZM335 0.61L335 0.61Q326.85 0.61 326.85-7.86L326.85-7.86 326.85-19.31 324.09-19.31Q323.36-19.31 323.08-19.62 322.8-19.92 322.8-20.65L322.8-20.65 322.8-23.66Q322.8-24.39 323.08-24.69 323.36-25 324.09-25L324.09-25 326.85-25 326.85-28.93Q326.85-29.52 327.09-29.83L327.09-29.83Q328.12-31.18 330.1-32.74L330.1-32.74Q330.44-32.98 330.71-32.98L330.71-32.98Q331-32.98 331.29-32.74L331.29-32.74Q332.34-31.93 333.06-31.23 333.78-30.52 334.3-29.83L334.3-29.83Q334.54-29.52 334.54-28.93L334.54-28.93 334.54-25 338.86-25Q339.59-25 339.87-24.69 340.16-24.39 340.16-23.66L340.16-23.66 340.16-20.65Q340.16-19.92 339.87-19.62 339.59-19.31 338.86-19.31L338.86-19.31 334.54-19.31 334.54-9.2Q334.54-5.3 337.37-5.3L337.37-5.3Q337.81-5.3 338.18-5.38 338.54-5.47 338.81-5.57L338.81-5.57Q339.33-5.76 339.53-5.71 339.74-5.66 339.91-5.18L339.91-5.18 341.33-1.39Q341.55-0.78 341.03-0.51L341.03-0.51Q340.67-0.34 339.26 0.13 337.86 0.61 335 0.61ZM344.28-33.2L344.28-33.2Q344.28-33.52 344.47-33.76 344.67-34.01 344.99-34.4L344.99-34.4Q345.67-35.18 346.57-36.05 347.48-36.91 348.41-37.72L348.41-37.72Q348.99-38.18 349.28-38.18L349.28-38.18Q349.58-38.18 350.19-37.72L350.19-37.72Q352.16-36.01 353.56-34.4L353.56-34.4Q353.87-34.03 354.08-33.78 354.29-33.52 354.29-33.2L354.29-33.2Q354.29-32.89 354.08-32.64 353.87-32.4 353.53-31.98L353.53-31.98Q352.87-31.23 351.99-30.36 351.11-29.49 350.19-28.71L350.19-28.71Q349.85-28.42 349.65-28.33 349.45-28.25 349.28-28.25L349.28-28.25Q349.11-28.25 348.93-28.33 348.75-28.42 348.36-28.71L348.36-28.71Q347.38-29.49 346.53-30.36 345.67-31.23 344.99-32.03L344.99-32.03Q344.67-32.42 344.47-32.65 344.28-32.89 344.28-33.2ZM353.12-23.71L353.12-1.29Q353.12-0.56 352.81-0.28 352.51 0 351.77 0L351.77 0 346.74 0Q346.01 0 345.71-0.28 345.4-0.56 345.4-1.29L345.4-1.29 345.4-23.71Q345.4-24.44 345.71-24.72 346.01-25 346.74-25L346.74-25 351.77-25Q352.51-25 352.81-24.72 353.12-24.44 353.12-23.71L353.12-23.71ZM372.21-25.61L372.21-25.61Q375.11-25.61 376.43-25.13 377.75-24.66 378.09-24.39L378.09-24.39Q378.63-24.05 378.92-23.51L378.92-23.51Q379.09-23.24 379.31-22.58 379.53-21.92 379.63-21.14L379.63-21.14Q379.75-20.53 379.65-20.28 379.55-20.02 379.04-19.65L379.04-19.65Q378.46-19.26 377.76-18.96 377.06-18.65 376.63-18.53L376.63-18.53Q376.26-18.43 376.06-18.48 375.87-18.53 375.53-18.77L375.53-18.77Q375.14-19.04 374.43-19.37 373.72-19.7 372.47-19.7L372.47-19.7Q370.89-19.7 369.46-18.92 368.03-18.14 367.14-16.58 366.25-15.01 366.25-12.67L366.25-12.67Q366.25-9.16 368.09-7.23 369.94-5.3 373.04-5.3L373.04-5.3Q374.62-5.3 375.67-5.63 376.72-5.96 377.33-6.3L377.33-6.3Q377.82-6.57 378.08-6.43 378.33-6.3 378.48-5.96L378.48-5.96 380.26-1.93Q380.53-1.29 379.97-1.03L379.97-1.03Q379.07-0.56 376.99 0.02 374.92 0.61 371.86 0.61L371.86 0.61Q365.74 0.61 362.07-2.65 358.41-5.91 358.41-12.4L358.41-12.4Q358.41-16.55 360.1-19.51 361.78-22.46 364.88-24.04 367.98-25.61 372.21-25.61ZM391.2 0.61L391.2 0.61Q388.59 0.61 386.86 0.17 385.14-0.27 384.11-0.89 383.07-1.51 382.48-2.03L382.48-2.03Q382.04-2.44 382.38-2.95L382.38-2.95 384.87-6.64Q385.41-7.42 386.1-6.74L386.1-6.74Q386.8-6.05 388.01-5.41 389.22-4.76 391.03-4.76L391.03-4.76Q392.64-4.76 393.68-5.31 394.71-5.86 394.71-6.91L394.71-6.91Q394.71-7.64 394.25-8.11 393.79-8.57 392.61-9.06 391.44-9.55 389.34-10.3L389.34-10.3Q386.24-11.43 384.65-13.01 383.07-14.6 383.07-17.65L383.07-17.65Q383.07-20.46 384.62-22.22 386.17-23.97 388.6-24.79 391.03-25.61 393.66-25.61L393.66-25.61Q397.01-25.61 398.36-24.99 399.72-24.37 400.11-24.02L400.11-24.02Q400.48-23.71 400.62-23.29L400.62-23.29Q400.94-22.34 401.11-20.78L401.11-20.78Q401.21-19.87 400.65-19.58L400.65-19.58Q400.35-19.41 399.72-19.21 399.08-19.02 398.45-18.87 397.81-18.73 397.5-18.73L397.5-18.73Q397.4-18.73 397.29-18.79 397.18-18.85 396.91-19.09L396.91-19.09Q396.59-19.41 395.82-19.82 395.06-20.24 393.71-20.24L393.71-20.24Q392.39-20.24 391.5-19.81 390.61-19.38 390.61-18.31L390.61-18.31Q390.61-17.14 391.75-16.55 392.88-15.97 395.49-15.04L395.49-15.04Q397.55-14.33 399.07-13.49 400.6-12.65 401.43-11.29 402.26-9.94 402.26-7.64L402.26-7.64Q402.26-4.66 400.63-2.84 399.01-1.03 396.48-0.21 393.96 0.61 391.2 0.61Z" opacity="1" transform="matrix(1,0,0,1,0,0)" fill="#2a61a0" class="slogan-text-1" data-fill-palette-color="secondary" id="text-1"></path></svg></g></svg></g></svg></g></svg></g><g transform="matrix(1,0,0,1,439.13123833868264,34.08074594188162)"><svg viewBox="0 0 281.09606399999996 189.38052150831288" height="189.38052150831288" width="281.09606399999996"><g><svg xmlns="http://www.w3.org/2000/svg" xmlns:xlink="http://www.w3.org/1999/xlink" version="1.1" x="0" y="0" viewBox="5 19.699 89.95257078666475 60.60300000000001" enable-background="new 0 0 100 100" xml:space="preserve" height="189.38052150831288" width="281.09606399999996" class="icon-icon-0" data-fill-palette-color="accent" id="icon-0"><g fill="#6096b4" data-fill-palette-color="accent"><path d="M28.038 44.495V80.302H42.981V55.364C38.931 54.481 36.277 49.22 29.075 45.019 28.736 44.821 28.389 44.649 28.038 44.495" fill="#6096b4" data-fill-palette-color="accent"></path><path d="M7.905 80.302H22.848V43.556C17.553 43.692 11.848 46.553 7.905 49.003z" fill="#6096b4" data-fill-palette-color="accent"></path><path d="M94.391 68.394L82.097 52.018A3.04 3.04 0 0 0 78.077 51.262C81.63 47.929 83.864 43.207 83.864 37.963 83.864 27.892 75.671 19.699 65.6 19.699S47.336 27.892 47.336 37.963C47.336 40.799 48.004 43.475 49.163 45.872L47.5 46.837A3.53 3.53 0 0 0 44.226 44.604 3.5 3.5 0 0 0 41.765 45.611L28.194 37.663C27.946 35.959 26.489 34.642 24.717 34.642A3.526 3.526 0 0 0 21.245 37.608L11.345 41.049A3.52 3.52 0 0 0 8.528 39.623C6.583 39.623 5 41.205 5 43.151S6.583 46.679 8.528 46.679A3.53 3.53 0 0 0 12.056 43.151C12.056 42.955 12.03 42.767 11.999 42.58L21.395 39.313C21.873 40.696 23.173 41.698 24.717 41.698A3.53 3.53 0 0 0 27.99 39.469L40.893 47.026C40.777 47.376 40.698 47.743 40.698 48.131A3.53 3.53 0 0 0 44.226 51.659C45.998 51.659 47.455 50.342 47.703 48.638L49.953 47.331A18.4 18.4 0 0 0 53.022 51.171C51.681 52.221 50.222 53.248 48.584 54.15 48.438 54.231 48.31 54.278 48.169 54.35V80.3H63.113V56.037C63.928 56.148 64.754 56.226 65.6 56.226 70.016 56.226 74.072 54.648 77.234 52.029A3.04 3.04 0 0 0 77.225 55.674L89.52 72.049A3.046 3.046 0 0 0 94.391 68.394M8.528 45.019C7.498 45.019 6.66 44.181 6.66 43.151S7.498 41.283 8.528 41.283C9.557 41.283 10.396 42.121 10.396 43.151S9.558 45.019 8.528 45.019M24.717 40.038A1.87 1.87 0 0 1 22.849 38.17C22.849 37.14 23.687 36.302 24.717 36.302S26.585 37.14 26.585 38.17A1.87 1.87 0 0 1 24.717 40.038M44.226 50A1.87 1.87 0 0 1 42.358 48.132C42.358 47.103 43.196 46.264 44.226 46.264S46.094 47.102 46.094 48.132A1.87 1.87 0 0 1 44.226 50M65.601 52.905C64.751 52.905 63.924 52.818 63.114 52.681V44.147C60.593 44.704 58.302 46.738 55.608 49.038A15 15 0 0 1 52.822 45.664L62.005 40.329A3.51 3.51 0 0 0 64.775 41.698C66.72 41.698 68.303 40.115 68.303 38.17S66.72 34.642 64.775 34.642A3.53 3.53 0 0 0 61.247 38.17C61.247 38.39 61.272 38.605 61.311 38.814L52.04 44.2A14.85 14.85 0 0 1 50.658 37.962C50.658 29.722 57.361 23.019 65.6 23.019S80.543 29.723 80.543 37.962C80.544 46.202 73.841 52.905 65.601 52.905M62.905 38.17A1.87 1.87 0 0 1 64.773 36.302 1.87 1.87 0 0 1 66.641 38.17 1.87 1.87 0 0 1 64.773 40.038 1.87 1.87 0 0 1 62.905 38.17" fill="#6096b4" data-fill-palette-color="accent"></path></g></svg></g></svg></g></svg></g><defs></defs></svg><rect width="395.52" height="141.43176300880282" fill="none" stroke="none" visibility="hidden"></rect></g></svg></g></svg>